<svg width="32" height="32" viewBox="0 0 32 32" fill="none" xmlns="http://www.w3.org/2000/svg">
<path d="M11.863 6.50796C8.346 6.50796 5.495 8.94496 5.495 13.38C5.495 17.814 11.439 22.084 16.534 26.666C21.629 22.084 27.6 17.869 27.6 13.38C27.6 8.89096 24.748 6.50796 21.231 6.50796C19.376 6.50796 17.698 7.89196 16.534 9.25696C15.371 7.89996 13.711 6.50696 11.864 6.50696L11.863 6.50796Z" fill="#FF5855"/>
<path d="M21.0251 6.52002C20.7291 6.52002 20.4311 6.58102 20.1451 6.64602C23.1081 7.11902 24.5181 9.38802 24.5181 13.371C24.5181 17.568 20.1481 21.514 15.3051 25.754C15.6451 26.054 15.9751 26.334 16.3111 26.634C21.4051 22.054 27.3741 17.861 27.3741 13.371C27.3741 8.88302 24.5421 6.52002 21.0251 6.52002Z" fill="#FF7A6C"/>
<path d="M11.947 6.60803C12.243 6.60803 12.541 6.66903 12.827 6.73403C9.863 7.20703 8.652 9.47703 8.652 13.46C8.652 17.657 12.278 22.248 17.12 26.489C16.78 26.787 16.996 26.422 16.66 26.723C11.567 22.14 5.599 17.949 5.599 13.46C5.599 8.97103 8.43 6.60803 11.948 6.60803H11.947Z" fill="#D94C4A"/>
<path d="M11.863 6.50796C8.346 6.50796 5.495 8.94496 5.495 13.38C5.495 17.814 11.439 22.084 16.534 26.666C21.629 22.084 27.6 17.869 27.6 13.38C27.6 8.89096 24.748 6.50796 21.231 6.50796C19.376 6.50796 17.698 7.89196 16.534 9.25696C15.371 7.89996 13.711 6.50696 11.864 6.50696L11.863 6.50796Z" stroke="#560F65" stroke-width="1.00001" stroke-linecap="round" stroke-linejoin="round"/>
<path d="M24.93 13.84C24.917 11.345 23.646 9.58603 21.76 8.75403" stroke="#F2F0E7" stroke-width="0.999848" stroke-linecap="round" stroke-linejoin="round"/>
</svg>
